<svg width="370" height="370" fill="none" xmlns="http://www.w3.org/2000/svg"><g filter="url('#filter0_d_707_29735')"><circle cx="185" cy="185" r="159" fill="#fff"/></g><path d="M203.083 238.5H111V111h113.333v28.333m0 0a35.419 35.419 0 0 1 25.044 60.46 35.419 35.419 0 0 1-50.087 0 35.415 35.415 0 0 1 25.043-60.46Zm-21.25 63.75v56.667l21.25-14.167 21.25 14.167v-56.667m-113.333-42.5h42.5m-42.5 21.25h35.417m-35.417 21.25h14.167m-14.167-63.75h14.167" stroke="url('#paint0_linear_707_29735')" stroke-width="8"/><defs><linearGradient id="paint0_linear_707_29735" x1="120.5" y1="53" x2="260" y2="284.5" gradientUnits="userSpaceOnUse"><stop stop-color="#007220"/><stop offset="1" stop-color="#00C2FF"/></linearGradient><filter id="filter0_d_707_29735" x="0" y="0" width="370" height="370" filterUnits="userSpaceOnUse" color-interpolation-filters="sRGB"><feFlood flood-opacity="0" result="BackgroundImageFix"/><feColorMatrix in="SourceAlpha" values="0 0 0 0 0 0 0 0 0 0 0 0 0 0 0 0 0 0 127 0" result="hardAlpha"/><feOffset/><feGaussianBlur stdDeviation="13"/><feComposite in2="hardAlpha" operator="out"/><feColorMatrix values="0 0 0 0 0 0 0 0 0 0 0 0 0 0 0 0 0 0 0.25 0"/><feBlend in2="BackgroundImageFix" result="effect1_dropShadow_707_29735"/><feBlend in="SourceGraphic" in2="effect1_dropShadow_707_29735" result="shape"/></filter></defs></svg>