<svg width="67" height="54" fill="none" xmlns="http://www.w3.org/2000/svg"><g clip-path="url('#clip0_793_1044')"><path d="M66.22 16.889h-66V37.11h66V16.89Z" fill="#191919"/><path d="M19.602 26.658h7.094a2.09 2.09 0 0 1 .775 4.03l1.463 2.11h-4.038l-1.039-1.96h-.913v1.96h-3.341v-6.14h-.001Zm5.023 1.3-1.675.005v1.457h1.678a.732.732 0 1 0-.003-1.461ZM43.867 31.447h3.44v1.35h-6.91v-6.139h3.47v4.79ZM34.225 31.447h4.243v1.35H30.69v-6.139h7.393v1.35h-3.858v1.045h3.858v1.35h-3.858v1.044ZM51.774 31.447h3.438v1.35h-6.91v-6.139h3.472v4.79Z" fill="#FAFAFA"/><path d="M5.91 21.115h52.476a2.145 2.145 0 0 1 0 4.29H11.76v7.392H5.91V21.115Zm46.016 1.414H11.76v1.431h40.166a.716.716 0 1 0 0-1.43Z" fill="#FAFAFA"/><path d="M17.352 26.66H14.01v6.139h3.342v-6.14ZM59.518 26.66h-3.342v6.139h3.342v-6.14Z" fill="#FAFAFA"/></g><defs><clipPath id="clip0_793_1044"><path fill="#fff" transform="translate(.22)" d="M0 0h66v54H0z"/></clipPath></defs></svg>