<svg width="55" height="54" fill="none" xmlns="http://www.w3.org/2000/svg"><g clip-path="url('#clip0_793_1024')"><path fill-rule="evenodd" clip-rule="evenodd" d="M17.268 25.979c.292 0 .467 0 .7-.059-.058.7-.058 1.46-.116 3.152v2.16c0 1.342.116 2.159.233 2.509.467 1.05 1.401 2.043 3.035 1.984 1.46-.058 2.451-.525 3.035-1.692.409-.817.467-1.401.525-3.502v-1.342c-.058-1.168-.116-1.927-.175-3.269 0 0 .35.058.526.058.175 0 .35 0 .525-.058-.059.467-.117 2.977-.117 2.977v1.576c0 2.1-.117 2.568-.35 3.268-.117.525-.467.992-.875 1.4-.7.818-1.868 1.226-3.269 1.226-1.284 0-2.51-.35-3.21-.992-.759-.759-1.05-1.459-1.05-3.035v-3.56c0-1.05-.117-2.276-.176-2.86.292.058.409.058.76.058Zm-5.953-.409s.409 1.05.759 1.868c.583 1.167 1.517 3.326 1.867 4.202.35.817 1.284 2.801 1.284 2.801l.818 1.751c-.292 0-.526-.058-.818-.058-.291 0-.466 0-.817.058l-.583-1.517s-.175-.584-.467-1.167c-.409-1.051-.642-1.46-.642-1.46h-3.91c-.059.175-.35.876-.526 1.401-.759 1.751-.992 2.802-.992 2.802-.234-.059-.35-.117-.525-.117-.175 0-.292 0-.526.058 0 0 .292-.758.642-1.459.467-1.05 1.11-2.451 1.635-3.618.408-.934 2.45-5.428 2.45-5.545h.351Zm-.875 2.801c-.234.467-1.401 3.094-1.401 3.094h3.443s-.583-1.343-.933-2.218c-.526-1.167-.76-1.634-.76-1.576 0 0-.174.409-.35.7Zm18.039-2.334h.759l1.167-.058.992-.059h.292c1.984 0 2.86.234 3.852 1.167.934.876 1.517 2.102 1.517 3.619 0 1.81-.817 3.268-2.042 4.319-1.05.875-2.218 1.167-4.844 1.109h-2.043c-.526 0-.817.058-.817.058.058-.233.116-2.451.116-2.976v-2.568c0-.584 0-2.16-.058-3.035 0-.526-.058-1.634-.058-1.634.467.058.758.058 1.167.058Zm1.984 9.576c.642 0 1.284 0 1.634-.058.934-.175 1.401-.35 2.16-1.109.875-.817 1.284-2.1 1.284-3.56-.058-1.517-.409-2.918-1.46-3.677-.816-.584-1.283-.7-2.917-.759-.7 0-1.693.059-2.393.175l-.117.059c0 .292-.058 1.75-.058 2.86v4.435c.058.7.058 1.11.116 1.576.467.117 1.576.058 1.751.058Zm8.171-9.693c1.401.058 1.985.058 2.627.058h2.568c0 .117-.059.292-.059.41 0 .116 0 .408.059.408-.35-.059-.7-.059-1.226-.117-1.4-.058-1.75-.058-2.218-.058h-.584v1.809c-.058.233-.058.583-.058.934 0 .525.058 1.05.058 1.05h2.51c.642-.058.992-.058 1.167-.058-.058 0-.058.175-.058.408 0 .175.058.409 0 .409-.525-.058-1.692-.117-2.626-.117h-.992v2.16c0 .583.058.992.058 1.05 0 .292 0 .759.058 1.226.117.058.292.058.467.058 1.226 0 3.035-.233 3.56-.292 0 0-.058.292-.058.409v.467h-4.086c-.7 0-1.05 0-1.4.058.058 0 .175-1.225.175-2.042v-1.285l.058-1.867s-.117-4.494-.175-5.078h.175ZM2.147 35.55h.759c.583 0 .875 0 1.225-.058.817 0 1.401-.117 1.576-.117v.817h-.35c-.292 0-.642 0-1.226-.058H1.33c-.817 0-1.226.058-1.284.058.058-.525.175-3.151.175-5.077 0-1.926-.175-5.195-.175-5.195.233 0 .525.058.759.058.233 0 .758-.058.758-.058-.233 2.393-.175 4.494-.175 4.494s0 3.736.059 4.844l.058.234c0 .058.292.058.642.058Zm44.838-4.319v1.81l.059 1.459.058 1.575v.117c-.409-.058-.584-.058-.759-.058-.292 0-.467 0-.7.058l.058-1.576c.059-1.167.059-2.217.059-4.027 0-1.167 0-1.75-.059-3.093 0-.525-.058-1.517-.058-1.517.35.058.7.058 1.109.058.292 0 .758-.058 1.167-.058.7-.059 1.167-.059 1.284-.059 2.451 0 3.152 1.167 3.152 2.335 0 1.4-1.226 2.451-3.269 2.86v.058l1.11 1.342.991 1.226 1.11 1.4c.466.584.583.818.875 1.11h-1.634l-1.81-2.452c-.467-.642-2.042-2.568-2.1-2.568h-.643Zm.817-.525c1.168 0 1.576-.175 2.101-.467.584-.35 1.11-1.05 1.05-1.868-.057-1.108-.7-1.926-2.45-1.926-.584 0-1.343.117-1.518.175v4.028c.175.058.526.058.817.058ZM10.031 13.134c-1.284.058-2.043.758-2.043 1.867.059.759.35 1.343 1.168 1.751.35.117.875.409 1.4.584 1.693.525 2.393 1.342 2.393 2.568 0 1.926-1.634 3.326-3.677 3.326-.992 0-1.926-.291-2.568-.875 0 0 .175-.817.234-1.167 0 0 1.05 1.634 2.568 1.576 1.459 0 2.334-1.11 2.334-2.277 0-1.05-.642-1.692-2.16-2.217-1.517-.526-2.159-1.11-2.45-1.576a2.5 2.5 0 0 1-.35-1.284c0-1.634 1.342-2.802 3.268-2.802 1.576 0 2.334.759 2.334.759-.175.409-.291.642-.408 1.167 0 0-.584-1.4-2.043-1.4Zm7.996.466-.059 1.693-.058 2.043s-.058.992 0 2.043c0 1.108 0 2.918.117 3.735 0 0-.467-.059-.759-.059-.35 0-.7.059-.7.059.058-.817.116-1.693.116-3.677v-4.144s-.058-1.284-.058-1.692l-1.634.058c-.876 0-1.05.058-1.634.117 0 0 0-.234.058-.467 0-.175 0-.117-.058-.409.117.059 3.735.059 3.735.059h.467c1.284 0 3.619-.059 3.619-.059v.409c0 .175.058.467.058.467-.7-.117-1.109-.117-1.81-.175h-1.4ZM.279 12.9c1.401.059 1.926.059 2.627.059.408 0 2.1 0 2.393-.059h.175c0 .117-.059.292-.059.409v.408c-.291 0-.7 0-1.167-.058-1.4-.059-1.81-.059-2.218-.059h-.583v.176l-.059 1.634v1.926s0 .058.059.058h1.4c.175 0 .467 0 1.11-.058h1.108v.759c-.583 0-1.692-.059-2.685-.117-.291 0-.7 0-.933.058h-.059v.992l.059 1.168v1.05c0 .234.058.759.058 1.167l.058.059h.467c1.226 0 2.977-.175 3.56-.234 0 0-.058.234-.058.409v.467H4.248l-.992-.059-1.868.059H.046s.117-1.168.117-1.985l.058-1.284v-1.867S.163 13.484.104 12.9H.28Zm22.242-1.167h5.428v-.642H22.52v.642Zm.233 1.167c1.401.059 1.985.059 2.627.059.408 0 2.16 0 2.393-.059h.233c-.058.117-.058.292-.058.409v.408c-.35 0-.7 0-1.226-.058-1.342-.059-1.75-.059-2.218-.059h-.583v3.794h1.459c.175 0 .408 0 1.109-.058h1.109s0 .175-.059.35c0 .233.059.409.059.409-.584 0-1.693-.059-2.685-.117-.292 0-.7 0-.992.058v.992l.058 1.168v1.05c0 .234.058.759.058 1.167v.059h.526c1.167 0 2.976-.175 3.502-.234 0 0-.059.234-.059.409 0 .175 0 .35.058.467h-1.284l-.992-.059-1.867.059h-1.343s.117-1.168.117-1.985v-1.284l.058-1.867s-.058-4.494-.175-5.078h.175Zm7.12 0c1.402.059 1.985.059 2.627.059.409 0 2.16 0 2.393-.059h.234c-.059.117-.059.292-.059.409v.408c-.35 0-.7 0-1.226-.058-1.342-.059-1.75-.059-2.217-.059h-.584v3.794h1.46c.174 0 .408 0 1.108-.058h1.109s0 .175-.058.35c0 .233.058.409.058.409-.584 0-1.693-.059-2.685-.117-.292 0-.7 0-.992.058v.992l.058 1.168v1.05c0 .234.059.759.059 1.167v.059h.525c1.167 0 2.977-.175 3.502-.234 0 0-.058.234-.058.409 0 .175 0 .35.058.467h-1.284l-.992-.059-1.868.059H29.7s.116-1.168.116-1.985v-1.284l.059-1.867s-.059-4.494-.175-5.078h.175ZM3.665 42.15l-.116.409c-.35.233-.817.35-1.343.35-1.342 0-2.16-.817-2.16-2.16 0-.642.234-1.225.643-1.634.408-.35.992-.525 1.692-.525.467 0 .934.058 1.284.233-.058.176-.116.292-.116.467h-.059a1.63 1.63 0 0 0-1.167-.466c-.525 0-.934.175-1.284.583-.233.35-.408.759-.408 1.343 0 .583.175 1.05.466 1.4.292.35.7.526 1.168.526.525 0 .934-.176 1.342-.526h.058Zm7.413-1.4c0 1.342-.876 2.159-2.276 2.159-1.401 0-2.335-.817-2.335-2.16 0-1.342.875-2.159 2.335-2.159 1.459 0 2.276.817 2.276 2.16Zm-3.619-1.343c-.233.35-.35.817-.35 1.343 0 .525.117.992.35 1.283.234.409.759.7 1.343.7.525 0 1.05-.291 1.284-.7.233-.35.35-.758.35-1.284 0-.525-.117-.992-.35-1.342-.234-.408-.76-.642-1.284-.642-.584 0-1.051.234-1.343.642Zm7.412-.817.176.35c.116.175.175.35.291.526l.117.291c.409.7.292.584.584 1.05.35.643.408.818.583 1.051.117-.233.234-.408.467-.758.175-.409.292-.642.409-.817l.116-.292.176-.234.175-.291c.175-.41.35-.642.408-.76l.059-.116h.058c.058.117.058.058.058.35.059.467 0 .234.117.876v.233l.058.234v.466c.059.117.059.35.117.642v.234l.059.467c.058.35.058.525.116.759-.175-.059-.233-.059-.292-.059-.058 0-.175 0-.291.059 0-.292 0-.467-.059-.876a34.895 34.895 0 0 0-.233-2.276c-.117.175-.175.233-.35.584l-.234.466c-.408.76-.292.526-.408.7-.409.818-.526.993-.642 1.285h-.059a13.038 13.038 0 0 1-.233-.525c-.059-.117.116.175-.467-.934-.175-.35-.292-.584-.409-.7l-.116-.234-.117-.233-.117-.234-.058-.058v-.059c-.117.467-.117.7-.234 1.635-.058.817-.058 1.05-.117 1.459-.116-.059-.175-.059-.175-.059-.058 0-.116 0-.233.059.058-.234.058-.409.117-.7.175-1.051.116-.76.116-.935.059-.116.059-.291.059-.408l.058-.234.175-1.05c.04-.39.078-.7.117-.934h.058Zm8.113 2.451v1.46c.058.116.058.175.058.35a1.757 1.757 0 0 0-.291-.059c-.059 0-.117 0-.35.059.058-.292.058-.467.058-.76 0-.408.058-1.108.058-1.4 0-.584-.058-.992-.058-1.4 0-.234 0-.41-.059-.643.234.059.292.059.526.059.116 0 .233 0 .466-.059h.35c.934 0 1.401.35 1.401 1.05 0 .41-.233.76-.525.993-.35.175-.7.234-1.226.234h-.408v.116Zm0-.35h.292c.875 0 1.284-.35 1.284-.992 0-.525-.35-.817-1.05-.817-.176 0-.293 0-.468.058-.058.234-.058.35-.058.409v1.342Zm6.362-2.101c.058.175 0 0 .175.467s.292.642.292.642c.583 1.342.408.934.583 1.4l.117.35c.35.643.233.468.292.643.175.408.233.408.35.759-.117-.059-.175-.059-.292-.059a.74.74 0 0 0-.35.059c-.058-.292-.117-.467-.292-.818-.117-.408-.233-.583-.35-.817h-1.518c-.291.7-.291.642-.642 1.635-.058-.059-.116-.059-.175-.059-.058 0-.116 0-.233.059.117-.292.233-.526.467-1.051.175-.35.292-.7.467-1.05.233-.526.408-.876.467-1.051.116-.117.233-.467.291-.642.117-.175.176-.292.176-.35l.058-.059v-.058h.117Zm-.876 2.335h1.343c-.059-.117 0 0-.175-.292-.292-.759-.176-.526-.292-.7-.059-.176-.117-.292-.234-.526l-.642 1.518Zm5.661-2.335.059.058c.117.059.292.292.525.526.175.233.409.467.584.642l.175.233.233.175.175.234c.117.058.35.35.642.7l.642.642v-.058c.059-.117 0 .058.059-.526v-.758c0-.526 0-1.11-.059-1.46v-.35c.117.059.175.059.234.059.058 0 .117 0 .175-.059v.526c-.058.291-.058.758-.058 1.109-.059.408-.059 1.05-.059 1.4v.876c0 .117 0 .058.059.35h-.117c-.175-.233-.35-.467-.817-.934-.292-.292-.584-.7-.876-.934-.116-.175.059.059-.583-.642l-.409-.408c-.408-.467-.292-.35-.35-.35l-.058-.059v1.576c0 .35 0 .934.058 1.284v.409c-.058-.059-.117-.059-.233-.059-.059 0-.117 0-.176.059 0-.234 0-.409.059-.76v-1.4l.058-.233V38.59h.058Zm7.296.117c.117 0 .175 0 .292-.059 0 .234 0 .409-.059.7v2.744c0 .292.059.467.059.759-.175-.059-.234-.059-.292-.059-.117 0-.175 0-.292.059v-.76c0-.116 0-.408.059-.7v-.933c0-.409 0-.7-.059-1.11v-.7c.117.059.175.059.292.059Zm4.786 4.085h-.642c-.234 0-.292 0-.409.059 0-.292.059-.584.059-1.168V39.35c0-.35 0-.525-.059-.7.175 0 .234.058.467.058h1.343c.233 0 .233-.059.35-.059v.35h-.467c-.117 0-.292-.058-.525-.058h-.584v.992c-.058.35-.058.234 0 .234a.447.447 0 0 0-.058.175c0 .058 0 .117.058.117.058.058.175.058.233.058.059 0 .059 0 .409-.058h.817v.35c-.292-.059-.7-.059-1.05-.059h-.467a.18.18 0 0 1 .058.117l-.058.467c0 .117 0 .059.058.584v.583a.44.44 0 0 0 .233.059c.117 0 .175 0 .526-.059.525 0 .642 0 .875-.058v.409h-.058v-.059h-1.11Zm5.836-3.443a.831.831 0 0 0-.759-.525c-.466 0-.758.291-.758.7 0 .233.058.467.233.584.175.116.35.175.7.35.41.175.526.233.701.408.175.175.292.409.292.642 0 .817-.642 1.401-1.518 1.401-.35 0-.758-.117-.992-.35.058-.292.117-.35.117-.526h.058c.175.35.584.584.934.584.525 0 .876-.35.876-.817a.986.986 0 0 0-.175-.584c-.176-.116-.292-.175-.7-.35-.76-.292-.993-.583-.993-1.167 0-.292.117-.642.35-.817.233-.175.584-.292.934-.292.35 0 .642.058.934.292-.117.175-.175.292-.175.467h-.059Z" fill="#FAFAFA"/></g><defs><clipPath id="clip0_793_1024"><path fill="#fff" transform="translate(.046)" d="M0 0h54v54H0z"/></clipPath></defs></svg>