<svg width="55" height="54" fill="none" xmlns="http://www.w3.org/2000/svg"><g clip-path="url('#clip0_793_1007')" fill-rule="evenodd" clip-rule="evenodd" fill="#FAFAFA"><path d="M43.546 20.346a.899.899 0 0 0-.263-.603.82.82 0 0 0-.59-.24H41.51a.82.82 0 0 0-.59.24.897.897 0 0 0-.263.603l.048 13.296a.87.87 0 0 0 .233.599.797.797 0 0 0 .572.245h1.184a.82.82 0 0 0 .59-.24.899.899 0 0 0 .263-.604V20.346ZM45.06 20.747v.595a.486.486 0 0 0 .13.36.446.446 0 0 0 .343.136h8.337a.713.713 0 0 0 .498-.223.78.78 0 0 0 .213-.52v-1.043a.762.762 0 0 0-.204-.53.692.692 0 0 0-.507-.213s-8.052.843-8.337.892a.468.468 0 0 0-.348.167.517.517 0 0 0-.125.379ZM38.284 34.486a3.115 3.115 0 0 1-1.294-.23 3.239 3.239 0 0 1-1.102-.747 3.416 3.416 0 0 1-.73-1.143 3.547 3.547 0 0 1-.237-1.353v-5.309h-.616a.6.6 0 0 1-.39-.186.654.654 0 0 1-.179-.409v-.893a.619.619 0 0 1 .17-.418.564.564 0 0 1 .399-.177h.616v-3.275a.868.868 0 0 1 .234-.598.767.767 0 0 1 .571-.245h1.184a.774.774 0 0 1 .544.26.849.849 0 0 1 .214.583v3.274h1.847a.525.525 0 0 1 .409.168.597.597 0 0 1 .16.428v.893a.619.619 0 0 1-.169.419.563.563 0 0 1-.4.176h-1.847v4.912c-.014.22.016.439.09.644.073.206.188.392.336.547.148.155.327.276.523.353.196.077.405.109.614.094h.19a.573.573 0 0 1 .441.182.63.63 0 0 1 .175.462v.943a.671.671 0 0 1-.184.453.613.613 0 0 1-.432.192h-1.137ZM24.076 28.886c0-2.828-1.611-5.655-5.258-5.655-3.363 0-5.21 2.777-5.21 5.655 0 3.076 1.989 5.805 5.257 5.805 2.227 0 4.405-1.19 4.832-3.225a.586.586 0 0 0-.105-.429.54.54 0 0 0-.369-.216h-1.611a.73.73 0 0 0-.383.104.775.775 0 0 0-.28.293c-.474.695-1.137 1.042-2.085 1.042a2.394 2.394 0 0 1-1.696-.7 2.622 2.622 0 0 1-.767-1.731h6.774c.617 0 .9-.348.9-.943Zm-7.627-1.19c.062-.61.34-1.171.778-1.576a2.269 2.269 0 0 1 1.591-.607 2.358 2.358 0 0 1 1.628.6c.455.402.752.966.835 1.582H16.45ZM54.867 28.886c0-2.828-1.612-5.655-5.259-5.655-3.363 0-5.21 2.777-5.21 5.655 0 3.076 1.99 5.805 5.258 5.805 2.227 0 4.405-1.19 4.831-3.225a.588.588 0 0 0-.104-.429.542.542 0 0 0-.37-.216h-1.61a.73.73 0 0 0-.383.104.775.775 0 0 0-.28.293c-.474.695-1.137 1.042-2.132 1.042a2.385 2.385 0 0 1-1.669-.713 2.612 2.612 0 0 1-.747-1.718h6.774c.616 0 .9-.348.9-.943Zm-7.627-1.19a2.48 2.48 0 0 1 .778-1.576 2.268 2.268 0 0 1 1.59-.607c1.28 0 2.322.943 2.417 2.182H47.24Z"/><path d="M32.65 19.664H10.766a.866.866 0 0 0-.636.276.981.981 0 0 0-.263.667l.047 9.03s-4.69-8.93-4.927-9.378a1.67 1.67 0 0 0-.602-.62 1.574 1.574 0 0 0-.819-.223h-1.8a.863.863 0 0 0-.344.072.898.898 0 0 0-.292.204.981.981 0 0 0-.263.667v13.197a.95.95 0 0 0 .254.675.836.836 0 0 0 .645.267h1.137a.836.836 0 0 0 .646-.267.951.951 0 0 0 .255-.676l-.048-9.227s4.737 8.98 4.974 9.327c.127.264.324.484.568.634.243.15.523.222.805.21h1.658a.836.836 0 0 0 .646-.268.95.95 0 0 0 .255-.676V21.899H32.65a.614.614 0 0 0 .432-.192.673.673 0 0 0 .184-.453v-.943a.673.673 0 0 0-.183-.453.613.613 0 0 0-.433-.192v-.001Z"/><path d="M29.086 25.414c.948 0 1.658.348 1.944.99.094.299.332.349.663.349h1.326a.496.496 0 0 0 .326-.154.544.544 0 0 0 .148-.342c0-1.588-1.848-3.027-4.405-3.027-2.653 0-4.406 1.34-4.406 3.424 0 1.637 1.232 2.58 2.7 3.026.71.15 1.895.447 2.463.645.569.15 1.137.348 1.137.893 0 .893-.852 1.141-1.847 1.141-.9 0-1.8-.397-2.037-1.09-.142-.398-.426-.447-.805-.447h-1.328a.55.55 0 0 0-.358.17.6.6 0 0 0-.163.375v.199c0 1.538 1.99 3.125 4.737 3.125 1.895 0 4.595-.843 4.595-3.523 0-1.587-.995-2.678-2.653-3.125-.616-.149-2.131-.595-2.463-.645-.616-.199-1.184-.397-1.184-.893 0-.843.71-1.091 1.61-1.091Z"/></g><defs><clipPath id="clip0_793_1007"><path fill="#fff" transform="translate(.866)" d="M0 0h54v54H0z"/></clipPath></defs></svg>