<svg width="78" height="54" fill="none" xmlns="http://www.w3.org/2000/svg"><g clip-path="url('#clip0_793_6981')" fill-rule="evenodd" clip-rule="evenodd" fill="#FAFAFA"><path d="M76.027 31.13a1.174 1.174 0 1 0-.007 2.348 1.174 1.174 0 0 0 .007-2.348Zm0 2.206a1.032 1.032 0 1 1-.002-2.064 1.032 1.032 0 0 1 .002 2.064Z"/><path d="M76.629 31.993a.322.322 0 0 0-.148-.282.605.605 0 0 0-.32-.065h-.57v1.312h.16v-.605h.294l.375.605h.19l-.396-.605c.234-.006.415-.102.415-.36Zm-.633.234h-.246v-.464h.375c.163 0 .341.024.341.227 0 .267-.286.237-.47.237ZM69.147 25.652l2.4-2.562a.814.814 0 0 0 .208-.433c0-.188-.161-.263-.67-.263h-.605v-1.618h6.553v1.618h-.862c-.994 0-1.18.15-2.566 1.899l-3.796 4.1v2.501c0 .64.323.865 1.248.865h1.433v1.56h-9.178v-1.56h1.434c.924 0 1.248-.225 1.248-.865v-2.502l-4.47-4.945c-.74-.865-.638-1.053-2.695-1.053v-1.618h8.301v1.618h-.591c-.601 0-.856.113-.856.338 0 .188.185.339.3.489l2.263 2.465c.268.28.595.316.901-.034ZM13.454 20.776h2.003v4.513h-1.85c-.163-.902-.728-1.253-1.243-1.726-.93-.854-2.94-1.565-4.633-1.565-2.183 0-4.026.677-4.026 1.674 0 2.765 12.489.564 12.489 5.792 0 2.727-2.675 4.25-7.48 4.25-1.663 0-4.18-.516-5.665-1.304-.465-.27-.663.254-.75.91H.246v-4.665h1.857c.41 1.186.974 1.43 1.493 1.9.9.828 3.043 1.43 5.01 1.41 2.963-.029 3.982-.677 3.982-1.617s-1.008-1.166-4.256-1.674l-2.757-.45c-3.112-.471-5.378-1.167-5.378-3.65 0-2.576 2.867-4.193 7.398-4.193 1.91 0 3.508.255 5.041 1.122.425.276.824.309.819-.727ZM52.53 28.332l.04-5.016c0-.658-.342-.884-1.32-.884H50.1v-1.56h7.314v1.56h-.954c-.979 0-1.321.226-1.321.884v10.098l-2.863-.022-9.27-8.779v6.375c0 .64.343.884 1.32.884H45.6v1.542h-7.595v-1.542h1.258c.978 0 1.321-.244 1.321-.884v-7.672c0-.658-.343-.884-1.321-.884h-1.258v-1.56h6.567l7.96 7.46ZM28.032 20.286c-5.828 0-9.477 2.577-9.477 6.714 0 4.062 3.598 6.62 9.3 6.62 6.056 0 9.579-2.52 9.579-6.827 0-3.874-3.802-6.507-9.401-6.507ZM27.9 31.984c-3.226 0-5.081-1.862-5.081-5.078 0-3.14 1.935-5.002 5.242-5.002 3.172 0 5.027 1.9 5.027 5.134 0 3.16-1.881 4.946-5.188 4.946Z"/></g><defs><clipPath id="clip0_793_6981"><path fill="#fff" transform="translate(.197)" d="M0 0h77v54H0z"/></clipPath></defs></svg>