<svg width="60" height="54" fill="none" xmlns="http://www.w3.org/2000/svg"><g clip-path="url('#clip0_793_7019')"><path d="M7.69 32.239a7.268 7.268 0 0 1-5.255-2.155 7.02 7.02 0 0 1-2.202-5.189 7.007 7.007 0 0 1 2.202-5.19A7.25 7.25 0 0 1 7.69 17.51a7.024 7.024 0 0 1 5.035 2.031l-1.418 1.439a5.094 5.094 0 0 0-3.617-1.43 5.03 5.03 0 0 0-3.743 1.591 5.198 5.198 0 0 0-1.533 3.78 5.188 5.188 0 0 0 1.533 3.73 5.338 5.338 0 0 0 7.447.087 4.224 4.224 0 0 0 1.09-2.474H7.71v-2.04h6.76c.065.412.092.828.08 1.244a6.38 6.38 0 0 1-1.746 4.696 6.763 6.763 0 0 1-5.114 2.076Zm15.706-1.352a4.872 4.872 0 0 1-6.738 0 4.541 4.541 0 0 1-1.38-3.381 4.542 4.542 0 0 1 1.38-3.382 4.874 4.874 0 0 1 6.738 0 4.536 4.536 0 0 1 1.376 3.382 4.541 4.541 0 0 1-1.383 3.381h.007Zm-5.25-1.33a2.581 2.581 0 0 0 3.763 0 2.837 2.837 0 0 0 .796-2.051 2.86 2.86 0 0 0-.796-2.063 2.617 2.617 0 0 0-3.78 0 2.829 2.829 0 0 0-.795 2.063 2.828 2.828 0 0 0 .803 2.051h.008Zm15.612 1.33a4.878 4.878 0 0 1-6.743 0 4.546 4.546 0 0 1-1.376-3.381 4.533 4.533 0 0 1 1.376-3.382 4.871 4.871 0 0 1 6.743 0 4.54 4.54 0 0 1 1.376 3.382 4.554 4.554 0 0 1-1.376 3.381Zm-5.255-1.33a2.586 2.586 0 0 0 3.768 0 2.844 2.844 0 0 0 .795-2.051 2.866 2.866 0 0 0-.795-2.063 2.621 2.621 0 0 0-3.781 0 2.833 2.833 0 0 0-.796 2.063 2.841 2.841 0 0 0 .8 2.051h.009Zm12.065 6.93a4.149 4.149 0 0 1-2.649-.84 4.899 4.899 0 0 1-1.546-1.962l1.816-.754c.197.464.506.87.9 1.185.419.34.947.519 1.487.502a2.385 2.385 0 0 0 1.852-.718 2.9 2.9 0 0 0 .664-2.067v-.685h-.075a3.03 3.03 0 0 1-2.487 1.074 4.312 4.312 0 0 1-3.183-1.384 4.574 4.574 0 0 1-1.363-3.332 4.616 4.616 0 0 1 1.363-3.361 4.327 4.327 0 0 1 3.183-1.393c.506 0 1.006.113 1.464.328.395.173.746.43 1.031.754h.075v-.754h1.972v8.475a4.952 4.952 0 0 1-1.263 3.701 4.461 4.461 0 0 1-3.241 1.231Zm.145-6.11a2.33 2.33 0 0 0 1.798-.795c.49-.563.749-1.292.722-2.039.03-.758-.229-1.5-.722-2.076a2.302 2.302 0 0 0-1.798-.796 2.465 2.465 0 0 0-1.865.796 2.903 2.903 0 0 0-.796 2.059 2.865 2.865 0 0 0 .796 2.04 2.475 2.475 0 0 0 1.865.812Zm7.87 1.576h-2.08V18.044h2.08v13.909Zm5.694.286a4.518 4.518 0 0 1-3.348-1.36 4.635 4.635 0 0 1-1.348-3.373 4.674 4.674 0 0 1 1.298-3.407 4.279 4.279 0 0 1 3.183-1.33c.546-.005 1.088.1 1.592.31a3.68 3.68 0 0 1 1.217.796c.301.29.568.612.796.962.186.295.343.607.47.932l.215.543-6.366 2.616a2.386 2.386 0 0 0 2.291 1.433 2.726 2.726 0 0 0 2.334-1.313l1.591 1.074a5.33 5.33 0 0 1-1.529 1.45 4.327 4.327 0 0 1-2.396.667Zm-2.656-4.878 4.23-1.757a1.444 1.444 0 0 0-.658-.726 2.143 2.143 0 0 0-1.09-.277 2.446 2.446 0 0 0-1.711.754 2.525 2.525 0 0 0-.771 2.006Z" fill="#FAFAFA"/></g><defs><clipPath id="clip0_793_7019"><path fill="#fff" transform="translate(.232)" d="M0 0h59v54H0z"/></clipPath></defs></svg>