<svg width="63" height="54" fill="none" xmlns="http://www.w3.org/2000/svg"><g clip-path="url('#clip0_793_6963')" fill="#FAFAFA"><path d="M62.002 23.151a1.985 1.985 0 0 0-.043.328 3.3 3.3 0 0 1-.062.432c-.019.142-.031.099-.105.099h-7.334c-.136 0-.148 0-.124.142.037.21.088.416.155.618a3.09 3.09 0 0 0 1.396 1.742c.269.146.562.24.865.278a3.43 3.43 0 0 0 2.057-.309c.228-.108.436-.252.618-.426a.228.228 0 0 1 .266-.08c.278.083.56.151.846.204.39.08.773.179 1.156.253.074 0 .087.03.037.099a6.649 6.649 0 0 1-1.02 1.106 5.376 5.376 0 0 1-2.669 1.236 5.988 5.988 0 0 1-1.445.086 4.466 4.466 0 0 1-4.054-2.83 6.449 6.449 0 0 1-.457-1.853 8.286 8.286 0 0 1-.03-1.706 6.143 6.143 0 0 1 1.019-3.089 4.591 4.591 0 0 1 3.225-2.033 5.951 5.951 0 0 1 2.471.13 3.941 3.941 0 0 1 2.385 1.854c.425.702.693 1.488.785 2.304 0 .198.043.39.056.618v.043l.006.754Zm-4.943-.995h2.638c.068 0 .093 0 .087-.086a3.088 3.088 0 0 0-.1-.71 2.471 2.471 0 0 0-2.7-1.922 2.756 2.756 0 0 0-2.298 1.631c-.15.327-.258.672-.32 1.026 0 .086 0 .092.073.092l2.62-.03ZM.703 17.645l.538-.074c.457-.062.92-.099 1.39-.13.47-.03 1.044-.05 1.57-.037a8.813 8.813 0 0 1 2.934.538 5.041 5.041 0 0 1 1.94 1.273c.588.633.98 1.422 1.13 2.273a6.953 6.953 0 0 1 0 2.626 5.24 5.24 0 0 1-1.47 2.917 6.062 6.062 0 0 1-2.341 1.39 9.162 9.162 0 0 1-3.467.47c-.62-.033-1.24-.1-1.853-.205l-.198-.037c-.068 0-.08-.043-.074-.105a17 17 0 0 0 .074-1.378c0-.685.031-1.371.043-2.057v-5.085c.012-.565-.01-1.13-.068-1.693a5.234 5.234 0 0 0-.074-.544v-.086l-.074-.056Zm2.472 5.5v3.552c0 .08 0 .105.098.105h.204c.413.014.826-.003 1.236-.05a4.586 4.586 0 0 0 1.711-.562 3.035 3.035 0 0 0 1.459-1.853c.216-.779.216-1.6 0-2.38a3.003 3.003 0 0 0-1.353-1.853 4.64 4.64 0 0 0-2.12-.642h-1.1c-.08 0-.098 0-.098.099-.007 1.204-.007 2.39-.037 3.583ZM36.403 17.361l.396.05a5.202 5.202 0 0 1 2.663 1.186 5.69 5.69 0 0 1 2.02 3.614 5.926 5.926 0 0 1-.333 3.09 5.728 5.728 0 0 1-1.125 1.823 5.35 5.35 0 0 1-2.867 1.662 4.705 4.705 0 0 1-1.44.105 5.233 5.233 0 0 1-3.583-1.774 5.77 5.77 0 0 1-1.446-3.046 5.991 5.991 0 0 1 .037-2.125 5.67 5.67 0 0 1 2.602-3.8 5.03 5.03 0 0 1 2.366-.785h.71Zm-.222 2.12a3.09 3.09 0 0 0-1.02.148 3.375 3.375 0 0 0-2.193 2.292 3.781 3.781 0 0 0-.062 2.175c.183.77.618 1.457 1.236 1.952a2.983 2.983 0 0 0 2.83.581 3.255 3.255 0 0 0 2.039-1.853 3.85 3.85 0 0 0 .34-1.934 3.708 3.708 0 0 0-.618-1.854 3.09 3.09 0 0 0-2.552-1.501v-.006ZM30.62 36.639h-.061a21.396 21.396 0 0 1-2.515-.254 25.953 25.953 0 0 1-4.48-1.149 35.222 35.222 0 0 1-5.746-2.675c-1.025-.581-2.026-1.236-3.02-1.854a.315.315 0 0 1-.174-.321.29.29 0 0 1 .216-.26.296.296 0 0 1 .247.037 27.806 27.806 0 0 0 7.069 3.01 32.8 32.8 0 0 0 4.078.87c.79.118 1.588.205 2.385.273 1.258.098 2.52.13 3.781.092a25.5 25.5 0 0 0 2.57-.167 33.47 33.47 0 0 0 6.698-1.34 27.287 27.287 0 0 0 5.71-2.472l.351-.21a.296.296 0 0 1 .412.082l.002.005a.303.303 0 0 1-.062.414h-.049c-1.557.982-3.09 1.94-4.764 2.774-1.72.892-3.52 1.62-5.375 2.175-1.135.339-2.294.593-3.466.76-.785.11-1.575.179-2.367.203h-1.44v.007ZM44.467 21.16a.187.187 0 0 0 0 .1v7.148c0 .093 0 .105-.112.105H42.2c-.068 0-.093 0-.093-.086V17.825c0-.08 0-.093.1-.093h1.785a.247.247 0 0 1 .148.043c.437.315.85.662 1.236 1.038.95.856 1.831 1.783 2.638 2.774.34.42.655.847.952 1.298l.061.092v-5.146c0-.08 0-.105.105-.105h2.175c.075 0 .093 0 .093.092v10.609c0 .068 0 .08-.093.08h-1.934c-.068 0-.092 0-.105-.08a13.79 13.79 0 0 0-1.668-3.652 16.36 16.36 0 0 0-3.09-3.558s-.011-.05-.042-.056ZM23.132 21.148a.197.197 0 0 0 0 .118v7.142c0 .087 0 .105-.105.105h-2.169c-.074 0-.087 0-.087-.092V17.837c0-.08 0-.105.1-.105h1.748a.272.272 0 0 1 .192.055c.456.32.887.673 1.29 1.057.693.625 1.35 1.287 1.972 1.983.567.635 1.087 1.31 1.557 2.02a.62.62 0 0 0 .086.13v-5.134c0-.087 0-.111.105-.111h2.132c.068 0 .087 0 .087.086v10.615c0 .062 0 .08-.075.08h-1.94a.082.082 0 0 1-.06-.014.08.08 0 0 1-.032-.052v-.008a13.303 13.303 0 0 0-1.199-2.854 16.562 16.562 0 0 0-3.17-4.066l-.432-.37ZM19.103 28.514H17.96c-.056 0-.08 0-.086-.075a8.02 8.02 0 0 0-.093-.89 23.625 23.625 0 0 0-.204-1.322c0-.061 0-.074-.086-.074h-4.826c-.062 0-.086 0-.093.08-.074.476-.148.958-.197 1.44-.031.266-.062.525-.087.791 0 .043 0 .05-.062.05H9.971c-.062 0-.055 0-.05-.069.032-.296.062-.617.1-.89.074-.691.197-1.377.34-2.063.162-.769.369-1.528.617-2.274a16.288 16.288 0 0 1 1.854-3.93 11.61 11.61 0 0 1 1.143-1.488.173.173 0 0 1 .142-.068h2.095a.15.15 0 0 1 .136.055c.789.885 1.452 1.875 1.97 2.941.265.54.502 1.093.711 1.656.376 1.035.674 2.096.89 3.176.13.618.235 1.236.315 1.897.043.327.068.618.105.97 0 .062 0 .08-.068.08l-1.168.006Zm-4.028-8.842-.043.062a16.95 16.95 0 0 0-1.52 3.089c-.161.42-.285.859-.433 1.285 0 .068 0 .068.068.068h3.862c.068 0 .074 0 .055-.074-.099-.365-.21-.717-.34-1.075a16.475 16.475 0 0 0-1.65-3.355Z"/></g><defs><clipPath id="clip0_793_6963"><path fill="#fff" transform="translate(.703)" d="M0 0h62v54H0z"/></clipPath></defs></svg>