<svg width="57" height="54" fill="none" xmlns="http://www.w3.org/2000/svg"><g clip-path="url('#clip0_793_1027')" fill="#FAFAFA"><path d="M.376 42.81h1.25v-2.598c0-.463 0-1.034.224-1.368.228-.364.632-.482.856-.482 1.055 0 1.055 1.3 1.055 1.751v2.697h1.246v-2.953c0-.423 0-1.338-.477-1.938-.431-.551-1.12-.759-1.568-.759-.79 0-1.222.455-1.43.661v-.474H.377v5.462Z"/><path fill-rule="evenodd" clip-rule="evenodd" d="M10.7 40.672c.036-.177.077-.404.077-.659 0-1.377-1.047-2.875-2.7-2.875-1.606 0-2.742 1.419-2.742 2.963 0 1.593 1.202 2.894 2.753 2.894 1.222 0 2.216-.915 2.517-1.9H9.29c-.236.453-.648.699-1.202.699-.892 0-1.38-.768-1.437-1.122h4.048Zm-4.09-1.054c.236-1.013 1.018-1.279 1.478-1.279.62 0 1.267.404 1.41 1.28H6.61Z"/><path d="M12.363 42.813h.77l.986-3.542h.02l.977 3.542h.77l1.906-5.462H16.46l-.96 3.337h-.017l-.847-3.337h-.994l-.855 3.337h-.02l-.95-3.337h-1.332l1.878 5.462Z"/><path fill-rule="evenodd" clip-rule="evenodd" d="M20.197 42.822h1.145v-.66c.31.366.753.838 1.76.838 1.905 0 2.59-1.84 2.59-2.934 0-1.445-1.03-2.893-2.62-2.893a2.26 2.26 0 0 0-1.624.68V35.54h-1.25v7.282Zm1.173-2.804c0-.797.59-1.643 1.552-1.643.79 0 1.523.638 1.523 1.703 0 1.061-.688 1.721-1.507 1.721-.729 0-1.568-.57-1.568-1.781ZM31.553 37.348h-1.149v.69h-.02c-.037-.079-.668-.878-1.727-.878-1.446 0-2.611 1.211-2.611 2.886 0 1.82 1.193 2.942 2.537 2.942.656 0 1.426-.365 1.821-.855v.677h1.149v-5.462Zm-1.186 2.718c0 1.013-.66 1.721-1.523 1.721-.892 0-1.552-.758-1.552-1.682 0-.817.526-1.742 1.552-1.742.741 0 1.523.57 1.523 1.703Z"/><path d="M33.437 35.54H32.19v7.282h1.246V35.54Z"/><path fill-rule="evenodd" clip-rule="evenodd" d="M39.31 37.348h-1.145v.69h-.02c-.037-.079-.668-.878-1.727-.878-1.45 0-2.615 1.211-2.615 2.886 0 1.82 1.193 2.942 2.537 2.942.66 0 1.43-.365 1.825-.855v.677h1.145v-5.462Zm-1.182 2.718c0 1.013-.66 1.721-1.523 1.721-.892 0-1.552-.758-1.552-1.682 0-.817.526-1.742 1.552-1.742.741 0 1.523.57 1.523 1.703Z"/><path d="M40.006 42.81h1.246v-2.598c0-.463 0-1.034.228-1.368.224-.364.632-.482.856-.482 1.05 0 1.05 1.3 1.05 1.751v2.697h1.25v-2.953c0-.423 0-1.338-.48-1.938-.431-.551-1.116-.759-1.568-.759-.79 0-1.222.455-1.43.661v-.474h-1.152v5.462ZM49.065 41.029c-.33.551-.741.758-1.157.758-.94 0-1.568-.778-1.568-1.713 0-1.122.754-1.712 1.511-1.712.77 0 1.063.522 1.214.796h1.41c-.534-1.683-1.964-1.998-2.624-1.998-1.438 0-2.761 1.222-2.761 2.894 0 1.811 1.438 2.933 2.774 2.933 1.222 0 2.187-.738 2.61-1.958h-1.409Z"/><path fill-rule="evenodd" clip-rule="evenodd" d="M56.046 40.672a3.23 3.23 0 0 0 .073-.659c0-1.377-1.042-2.875-2.696-2.875-1.609 0-2.745 1.419-2.745 2.963 0 1.593 1.205 2.894 2.753 2.894 1.222 0 2.22-.915 2.517-1.9h-1.311c-.236.453-.648.699-1.206.699-.892 0-1.38-.768-1.434-1.122h4.049Zm-4.09-1.054c.237-1.013 1.015-1.279 1.475-1.279.623 0 1.27.404 1.41 1.28h-2.884ZM21.626 24.712l-1.67 3.02-9.242-.544.925-1.682 9.987-.794Zm6.684-9.625.839 3.334-13.12-.903.925-1.682 11.356-.75ZM19.614 11l7.678.006.578 2.279-9.18-.603.924-1.682Zm-.676 18.61-1.332 2.401-9.551.01.924-1.68 9.959-.73Zm16.768-6.476-2.309 4.197h2.2c1.022 0 2.85-.533 3.413-2.055.521-1.414-.436-2.144-1.104-2.144l-2.2.002Zm2.208-4.015 1.919-.013c1.279-.007 2.61-.62 3.1-1.862.451-1.153-.156-2.134-.958-2.13l-1.857-.003-2.204 4.008Zm-8.696-.7 1.939-3.523 6.566-.441.228-.428-6.07-.445 1.418-2.582L44.561 11c3.462 0 6.024 1.297 5.026 5.11-.297 1.155-1.706 4.063-5.832 5.28.876.11 3.055 1.123 2.68 3.748-.668 4.655-6.423 6.871-9.625 6.872l-13.29.007-.656-2.694 6.961-.514.236-.426-7.551-.482-.815-3.193 10.749-.657.232-.423-19.306-1.276.925-1.681 20.78-1.413.236-.424-6.093-.413Z"/></g><defs><clipPath id="clip0_793_1027"><path fill="#fff" transform="translate(.376)" d="M0 0h56v54H0z"/></clipPath></defs></svg>