<svg width="25" height="24" fill="none" xmlns="http://www.w3.org/2000/svg"><path d="M6.9 21.91a.924.924 0 0 1-.95-.094c-.3-.208-.45-.512-.45-.911V5.174c0-.598.196-1.11.588-1.536.392-.426.863-.639 1.412-.638h10l2 2.174h-12v14.074l5-2.337 5 2.337V3s1 0 1.5.543c.5.544.5 1.63.5 1.63v15.732c0 .398-.15.702-.45.91a.92.92 0 0 1-.95.095l-5.6-2.608-5.6 2.608Z" fill="#999"/><path d="M6.9 21.91a.924.924 0 0 1-.95-.094c-.3-.208-.45-.512-.45-.911V5.174c0-.598.196-1.11.588-1.536.392-.426.863-.639 1.412-.638h10l2 2.174h-12v14.074l5-2.337 5 2.337V3s1 0 1.5.543c.5.544.5 1.63.5 1.63v15.732c0 .398-.15.702-.45.91a.92.92 0 0 1-.95.095l-5.6-2.608-5.6 2.608Z" fill="#999"/><path d="M15.071 10.257h-1.828V8.43a.529.529 0 0 0-.529-.529h-.428a.529.529 0 0 0-.529.529v1.828H9.93a.529.529 0 0 0-.529.529v.428c0 .292.237.529.529.529h1.828v1.828c0 .292.237.529.529.529h.428a.529.529 0 0 0 .529-.529v-1.828h1.828a.529.529 0 0 0 .529-.529v-.428a.529.529 0 0 0-.529-.529Z" fill="#999" stroke="#999" stroke-width=".2"/></svg>