<svg width="17" height="16" fill="none" xmlns="http://www.w3.org/2000/svg"><path d="m8.758 11.755-.258-.156-.258.156-2.766 1.666-.01.007c-.039.024-.059.025-.074.023a.146.146 0 0 1-.085-.03.299.299 0 0 1-.089-.111c0-.002-.008-.016.003-.064l.733-3.15.068-.294-.228-.197-2.446-2.113c-.041-.038-.048-.062-.05-.073a.168.168 0 0 1 .006-.099.217.217 0 0 1 .058-.094.24.24 0 0 1 .097-.03l3.218-.281.3-.027.117-.277 1.25-2.967.001-.002c.016-.04.031-.05.045-.058a.218.218 0 0 1 .11-.034c.027 0 .061.006.11.034.013.007.029.019.046.06l1.25 2.967.117.277.3.027 3.218.282a.24.24 0 0 1 .097.03c.02.016.04.043.059.094a.167.167 0 0 1 .006.099c-.002.01-.008.033-.05.071l-2.446 2.114-.229.197.069.295.733 3.149c.011.05.003.063.002.064l.452.215-.452-.215a.293.293 0 0 1-.088.11v.002a.145.145 0 0 1-.085.03c-.015 0-.036 0-.074-.024l-.01-.007-2.767-1.666Z" stroke="#FFD233"/></svg>