<svg width="17" height="16" fill="none" xmlns="http://www.w3.org/2000/svg"><path d="M8.758 11.755 8.5 11.6l-.258.155-2.766 1.667-.01.006c-.039.024-.059.025-.074.024a.146.146 0 0 1-.085-.03.299.299 0 0 1-.089-.112c0-.002-.008-.015.003-.064l.733-3.15.068-.293-.228-.198-2.446-2.113c-.041-.038-.048-.062-.05-.073a.168.168 0 0 1 .006-.099.217.217 0 0 1 .058-.093.24.24 0 0 1 .097-.03l3.218-.282.3-.026.117-.278 1.25-2.967.001-.002c.016-.039.031-.05.045-.058a.218.218 0 0 1 .11-.034c.027 0 .061.006.11.034.013.008.029.02.046.06l1.25 2.967.117.278.3.026 3.218.282a.24.24 0 0 1 .097.03c.02.016.04.043.059.094a.167.167 0 0 1 .006.1c-.002.01-.008.032-.05.07l-2.446 2.114-.229.198.069.294.733 3.149c.011.05.003.063.002.065l.452.214-.452-.214a.293.293 0 0 1-.088.11v.001a.145.145 0 0 1-.085.03c-.015.001-.036 0-.074-.024l-.01-.006-2.767-1.667Z" stroke="#FFD233"/></svg>