<svg width="84" height="54" fill="none" xmlns="http://www.w3.org/2000/svg"><path d="M7.978 21.455H0v11.09h3.865v-3.45h4.14c2.74 0 3.728-1.645 3.728-3.773 0-2.471-1.015-3.869-3.755-3.869v.002Zm-1.618 4.94H3.865v-2.33H6.36c.974 0 1.344.342 1.344 1.18 0 .84-.37 1.15-1.344 1.15Zm6.649-4.94h10.403v2.702h-6.538v1.492h6.072v2.704h-6.072v1.492h6.538v2.702H13.01V21.455Zm19.999 0H25.03v11.09h3.865v-3.45h4.139c2.742 0 3.73-1.645 3.73-3.773 0-2.471-1.016-3.869-3.758-3.869l.002.002Zm-1.617 4.94h-2.495v-2.33h2.495c.973 0 1.344.342 1.344 1.18 0 .84-.37 1.15-1.343 1.15Zm18.834 2.562c0 2.704-1.946 3.978-6.291 3.978-2.974 0-6.224-.466-6.237-3.728h4.66c.013.372.136.62.412.792.286.156.712.234 1.315.234 1.206 0 1.536-.374 1.536-.902 0-.326-.179-.652-.698-.745l-4.415-.746c-1.89-.327-2.672-1.569-2.672-3.122-.002-2.876 2.48-3.653 5.658-3.653 4.358 0 6.154 1.29 6.292 3.636h-4.497c0-.451-.233-.73-.59-.887-.342-.17-.78-.233-1.205-.233-1.151 0-1.548.326-1.548.792 0 .31.122.513.506.575l4.619.777c1.947.325 3.152 1.35 3.152 3.23l.003.002Zm1.26-7.502h3.866v11.09h-3.865v-11.09ZM60.67 27c0 2.253.974 3.138 2.384 3.138 1.22 0 1.947-.574 2.262-1.91h4.358c-.246 1.46-.686 2.64-1.645 3.448-.945.808-2.425 1.259-4.782 1.259-2.358 0-6.689-.187-6.689-5.935 0-5.748 4.345-5.935 6.689-5.935 2.343 0 5.921.342 6.43 4.738h-4.36c-.109-.793-.577-1.942-2.069-1.942-1.577 0-2.577.884-2.577 3.138L60.67 27Zm16.64-5.935c-2.345 0-6.69.187-6.69 5.935 0 5.748 4.345 5.935 6.69 5.935 2.345 0 6.69-.187 6.69-5.935 0-5.748-4.346-5.935-6.69-5.935Zm0 9.073c-1.577 0-2.577-.885-2.577-3.138s1.001-3.138 2.577-3.138c1.575 0 2.577.885 2.577 3.138s-1.002 3.138-2.577 3.138Z" fill="#FAFAFA"/></svg>