<svg width="21" height="17" fill="none" xmlns="http://www.w3.org/2000/svg"><path d="M21 6.245c0 1.948-1.042 3.659-2.018 4.827l-4.546 5.413H12.02l4.79-5.477c-.62.35-1.325.53-2.04.52-1.464 0-2.661-.412-3.593-1.105.02.144.027.288.022.433 0 3.42-2.195 5.89-5.588 5.89-3.481 0-5.61-2.47-5.61-5.89 0-3.442 2.129-5.889 5.61-5.889 1.508 0 2.75.455 3.681 1.256.045-3.14 2.418-5.478 5.921-5.478C18.85.745 21 3.127 21 6.245ZM9.114 10.856c0-2.511-1.131-4.33-3.504-4.33-2.395 0-3.526 1.819-3.526 4.33 0 2.533 1.131 4.33 3.526 4.33 2.373 0 3.504-1.797 3.504-4.33Zm9.868-4.611c0-2.122-1.33-3.94-3.77-3.94-2.417 0-3.836 1.818-3.836 4.005 0 2.143 1.353 3.897 3.792 3.897 2.395 0 3.814-1.884 3.814-3.962Z" fill="#fff"/></svg>