<svg width="92" height="54" fill="none" xmlns="http://www.w3.org/2000/svg"><g clip-path="url('#clip0_793_1040')" fill="#FAFAFA"><path d="M.663 20.327s2.265 9.71 2.627 11.292c.42 1.842 1.18 2.522 3.371 2.062l1.415-6.03c.359-1.495.597-2.563.829-4.084h.04c.16 1.373.39 2.736.686 4.084 0 0 .578 2.735.871 4.169.294 1.434 1.119 2.343 3.263 1.851l3.369-13.357h-2.72l-1.15 5.787c-.308 1.683-.59 2.994-.806 4.531h-.037c-.197-1.521-.448-2.783-.763-4.421l-1.196-5.884H7.628l-1.282 5.738c-.362 1.742-.702 3.15-.927 4.635h-.037a177.177 177.177 0 0 0-.835-4.855s-.763-4.104-1.029-5.502l-2.855-.016Zm25.927 0V33.68h2.59V20.327h-2.59Zm36.464 0v9.852c0 1.36.244 2.311.766 2.89.28.282.611.501.974.645.362.144.75.21 1.137.194a5.88 5.88 0 0 0 1.872-.292L67.77 31.5a3.782 3.782 0 0 1-.982.12c-.884 0-1.178-.59-1.178-1.81v-3.777h2.253v-2.547h-2.234v-3.16h-2.574Zm-42.252 3.097a7.147 7.147 0 0 0-3.582.894l.51 1.828a5.076 5.076 0 0 1 2.611-.76c1.592 0 1.855.942 1.855 1.55v.142c-3.465 0-5.655 1.25-5.655 3.81 0 1.563 1.115 3.03 3.052 3.03a3.33 3.33 0 0 0 1.534-.311c.482-.225.909-.561 1.248-.984h.059s.395 1.735 2.577 1.071c-.114-.8-.165-1.609-.152-2.418v-3.56c0-2.266-.927-4.272-4.06-4.272l.003-.02Zm15.49 0a2.899 2.899 0 0 0-1.605.38c-.492.281-.899.7-1.175 1.21h-.037v-1.366h-2.473V33.68h2.602v-5.884a2.433 2.433 0 0 1 .124-.819c.216-.592.742-1.295 1.582-1.295 1.05 0 1.545.93 1.545 2.266v5.716h2.6V27.71a2.896 2.896 0 0 1 .107-.813c.107-.343.314-.643.593-.856.278-.214.614-.33.959-.332 1.063 0 1.576.913 1.576 2.492v5.503h2.602v-5.93c0-3.117-1.511-4.35-3.217-4.35a3.363 3.363 0 0 0-1.892.544 4.127 4.127 0 0 0-1.21 1.25h-.041a2.833 2.833 0 0 0-1.048-1.335 2.637 2.637 0 0 0-1.591-.459Zm14.296 0a7.17 7.17 0 0 0-3.585.894l.51 1.828a5.077 5.077 0 0 1 2.615-.76c1.588 0 1.854.942 1.854 1.55v.142c-3.464 0-5.655 1.25-5.655 3.81 0 1.563 1.115 3.03 3.056 3.03a3.328 3.328 0 0 0 1.533-.31 3.483 3.483 0 0 0 1.248-.985h.062s.395 1.735 2.577 1.071c-.114-.8-.165-1.609-.151-2.418v-3.56c0-2.266-.927-4.272-4.06-4.272l-.004-.02Zm10.816 0a2.741 2.741 0 0 0-1.63.617 2.96 2.96 0 0 0-.979 1.5h-.07v-1.893h-2.346V33.68h2.673v-5.136a3.907 3.907 0 0 1 .059-.742c.08-.515.338-.981.727-1.308.389-.327.88-.492 1.377-.462.258.003.515.026.77.071v-2.618a2.461 2.461 0 0 0-.587-.065l.006.003Zm-39.122 5.422v1.252c.007.248-.036.495-.125.724-.09.23-.224.437-.394.61-.17.171-.374.304-.596.389-.223.084-.46.12-.696.103a1.13 1.13 0 0 1-.506-.067 1.174 1.174 0 0 1-.431-.284 1.247 1.247 0 0 1-.277-.448 1.295 1.295 0 0 1-.071-.528c0-1.38 1.449-1.761 3.09-1.751h.006Zm29.783 0v1.252c.004.184-.017.367-.061.544a1.9 1.9 0 0 1-.674.946 1.76 1.76 0 0 1-1.076.349 1.134 1.134 0 0 1-.505-.067 1.173 1.173 0 0 1-.432-.284 1.242 1.242 0 0 1-.277-.448 1.29 1.29 0 0 1-.071-.528c0-1.38 1.449-1.761 3.09-1.751l.006-.013ZM81.874 15.49c-.837 0-1.502.49-1.502 1.085l.51 6.02c.056.363.48.647.992.647.513 0 .927-.278.995-.647l.51-6.02c0-.596-.667-1.084-1.505-1.084Zm-8.272 4.83a1.575 1.575 0 0 0-.728.3c-.215.16-.39.374-.508.622-.417.76-.343 1.618.145 1.903l5.226 2.557c.327.126.772-.116 1.028-.58.257-.468.238-.993-.034-1.223l-4.724-3.476a.736.736 0 0 0-.405-.103Zm16.545 0a.735.735 0 0 0-.405.103l-4.725 3.473c-.272.23-.29.754-.034 1.223.26.463.701.706 1.026.58l5.235-2.554c.494-.294.562-1.142.148-1.9a1.679 1.679 0 0 0-.508-.624 1.577 1.577 0 0 0-.728-.301h-.01Zm-12.213 7.942a.487.487 0 0 0-.195.036l-5.231 2.547c-.492.298-.566 1.146-.148 1.906.417.761 1.155 1.117 1.647.82l4.724-3.467c.272-.236.294-.76.034-1.227a1.112 1.112 0 0 0-.343-.418 1.047 1.047 0 0 0-.49-.197h.002Zm7.883 0c-.177.022-.346.09-.491.197a1.112 1.112 0 0 0-.343.418c-.257.466-.235.99.034 1.227l4.722 3.466c.491.298 1.236-.061 1.65-.819.414-.757.346-1.618-.149-1.906l-5.228-2.554a.496.496 0 0 0-.195-.035v.006Zm-3.943 2.496c-.513 0-.927.278-.992.647l-.507 6.02c0 .599.665 1.084 1.5 1.084.834 0 1.504-.485 1.504-1.084l-.51-6.02c-.058-.363-.479-.647-.995-.647Z"/></g><defs><clipPath id="clip0_793_1040"><path fill="#fff" transform="translate(.663)" d="M0 0h91v54H0z"/></clipPath></defs></svg>