<svg width="92" height="54" fill="none" xmlns="http://www.w3.org/2000/svg"><g clip-path="url('#clip0_793_7005')" fill="#FAFAFA"><path d="M.663 20.327s2.265 9.71 2.627 11.293c.42 1.841 1.18 2.521 3.371 2.062l1.415-6.03c.359-1.495.597-2.564.829-4.085h.04c.16 1.373.39 2.737.686 4.085 0 0 .578 2.735.871 4.168.294 1.434 1.119 2.344 3.263 1.852l3.369-13.357h-2.72l-1.15 5.787c-.308 1.683-.59 2.993-.806 4.53h-.037c-.197-1.52-.448-2.783-.763-4.42l-1.196-5.885H7.628l-1.282 5.739c-.362 1.741-.702 3.15-.927 4.635h-.037a177.177 177.177 0 0 0-.835-4.855s-.763-4.104-1.029-5.502l-2.855-.017Zm25.927 0v13.355h2.59V20.327h-2.59Zm36.464 0v9.853c0 1.359.244 2.31.766 2.89.28.281.611.5.974.645.362.144.75.21 1.137.193a5.88 5.88 0 0 0 1.872-.291L67.77 31.5a3.782 3.782 0 0 1-.982.12c-.884 0-1.178-.59-1.178-1.81v-3.776h2.253v-2.548h-2.234v-3.159h-2.574Zm-42.252 3.098a7.147 7.147 0 0 0-3.582.893l.51 1.829a5.076 5.076 0 0 1 2.611-.76c1.592 0 1.855.941 1.855 1.55v.142c-3.465 0-5.655 1.25-5.655 3.81 0 1.563 1.115 3.029 3.052 3.029a3.33 3.33 0 0 0 1.534-.31c.482-.225.909-.562 1.248-.985h.059s.395 1.735 2.577 1.072c-.114-.8-.165-1.61-.152-2.418v-3.56c0-2.266-.927-4.273-4.06-4.273l.003-.02Zm15.49 0a2.899 2.899 0 0 0-1.605.38c-.492.28-.899.7-1.175 1.209h-.037v-1.366h-2.473v10.034h2.602v-5.885a2.433 2.433 0 0 1 .124-.818c.216-.593.742-1.295 1.582-1.295 1.05 0 1.545.929 1.545 2.266v5.715h2.6V27.71a2.896 2.896 0 0 1 .107-.812c.107-.344.314-.644.593-.857.278-.213.614-.33.959-.331 1.063 0 1.576.913 1.576 2.492v5.502h2.602v-5.93c0-3.116-1.511-4.35-3.217-4.35a3.363 3.363 0 0 0-1.892.545 4.127 4.127 0 0 0-1.21 1.249h-.041a2.833 2.833 0 0 0-1.048-1.335 2.637 2.637 0 0 0-1.591-.458Zm14.296 0a7.17 7.17 0 0 0-3.585.893l.51 1.829a5.077 5.077 0 0 1 2.615-.76c1.588 0 1.854.941 1.854 1.55v.142c-3.464 0-5.655 1.25-5.655 3.81 0 1.563 1.115 3.029 3.056 3.029a3.328 3.328 0 0 0 1.533-.31 3.483 3.483 0 0 0 1.248-.985h.062s.395 1.735 2.577 1.072c-.114-.8-.165-1.61-.151-2.418v-3.56c0-2.266-.927-4.273-4.06-4.273l-.004-.02Zm10.816 0a2.741 2.741 0 0 0-1.63.617 2.96 2.96 0 0 0-.979 1.5h-.07v-1.894h-2.346v10.034h2.673v-5.137a3.907 3.907 0 0 1 .059-.741c.08-.516.338-.982.727-1.309.389-.327.88-.491 1.377-.462.258.003.515.027.77.072v-2.619a2.461 2.461 0 0 0-.587-.064l.006.003Zm-39.122 5.421V30.1c.007.247-.036.494-.125.724-.09.23-.224.437-.394.609s-.374.304-.596.389c-.223.085-.46.12-.696.103a1.13 1.13 0 0 1-.506-.067 1.174 1.174 0 0 1-.431-.283 1.247 1.247 0 0 1-.277-.448 1.295 1.295 0 0 1-.071-.529c0-1.379 1.449-1.76 3.09-1.75h.006Zm29.783 0V30.1c.004.183-.017.366-.061.543a1.9 1.9 0 0 1-.674.946 1.76 1.76 0 0 1-1.076.35 1.134 1.134 0 0 1-.505-.068 1.173 1.173 0 0 1-.432-.284 1.242 1.242 0 0 1-.277-.447 1.29 1.29 0 0 1-.071-.529c0-1.379 1.449-1.76 3.09-1.75l.006-.014ZM81.874 15.49c-.838 0-1.502.489-1.502 1.085l.51 6.02c.055.362.479.647.992.647s.927-.279.995-.648l.51-6.02c0-.595-.668-1.084-1.505-1.084ZM73.6 20.32a1.575 1.575 0 0 0-.728.299c-.215.16-.39.375-.508.623-.417.76-.343 1.618.145 1.903l5.226 2.557c.328.126.772-.117 1.029-.58.256-.469.238-.993-.034-1.223l-4.725-3.476a.736.736 0 0 0-.405-.104Zm16.545 0a.735.735 0 0 0-.405.103l-4.724 3.473c-.273.23-.291.754-.035 1.223.26.463.702.706 1.026.58l5.235-2.554c.495-.295.563-1.143.149-1.9a1.679 1.679 0 0 0-.508-.625 1.577 1.577 0 0 0-.728-.3h-.01Zm-12.212 7.942a.487.487 0 0 0-.195.035l-5.232 2.547c-.491.298-.565 1.146-.148 1.907.417.76 1.156 1.117 1.647.819l4.725-3.467c.272-.236.294-.76.034-1.226a1.112 1.112 0 0 0-.343-.418 1.047 1.047 0 0 0-.491-.197h.003Zm7.883 0c-.177.022-.346.09-.492.197a1.112 1.112 0 0 0-.343.418c-.256.466-.234.99.035 1.226l4.721 3.467c.492.297 1.236-.062 1.65-.82.415-.756.346-1.617-.148-1.905l-5.228-2.554a.496.496 0 0 0-.195-.036v.007Zm-3.943 2.495c-.513 0-.927.278-.992.647l-.507 6.02c0 .6.664 1.085 1.499 1.085.834 0 1.505-.486 1.505-1.084l-.51-6.02c-.059-.363-.48-.648-.995-.648Z"/></g><defs><clipPath id="clip0_793_7005"><path fill="#fff" transform="translate(.663)" d="M0 0h91v54H0z"/></clipPath></defs></svg>